<svg xmlns="http://www.w3.org/2000/svg" xmlns:svg="http://www.w3.org/2000/svg" id="svg6" fill="#1F1C47" version="1.1" viewBox="0 0 40 40"><metadata id="metadata12"/><path id="path4" fill="#1F1C47" d="M28.0798 11.03L8.0198 18.9C8.0198 18.9 7.0698 19.22 7.1498 19.82C7.2198 20.42 7.9998 20.69 7.9998 20.69L13.0498 22.39L25.1598 14.7C25.1598 14.7 25.8598 14.28 25.8298 14.7C25.8298 14.7 25.9498 14.77 25.5798 15.12C25.2098 15.47 16.0598 23.69 16.0598 23.69L16.0498 23.8L16.0298 23.78L15.4098 29.3C15.6898 29.42 15.9398 29.23 15.9398 29.23L19.1998 26.26L24.2798 30.16C25.6498 30.76 26.1498 29.51 26.1498 29.51L29.7298 11.5C29.7298 10.31 28.0798 11.03 28.0798 11.03Z"/></svg>